<svg version="1.2" baseProfile="tiny-ps" xmlns="http://www.w3.org/2000/svg" viewBox="0 0 300 201" width="220" height="150">
	<title>img</title>
	<style>
		tspan { white-space:pre }
		.shp0 { fill: #ebebea } 
		.shp1 { fill: #f7dbb2 } 
		.shp2 { fill: #05383a } 
		.shp3 { fill: #00af9e } 
		.shp4 { fill: #00bfb3 } 
		.shp5 { fill: #ff6160 } 
		.shp6 { fill: #ffd200 } 
		.shp7 { fill: #231f20 } 
		.shp8 { fill: #2f7aff } 
		.shp9 { fill: #0f4ab2 } 
		.shp10 { fill: #aac8e9 } 
		.shp11 { fill: #5589ff } 
		.shp12 { fill: #ffffff } 
		.shp13 { fill: #bcbcbc } 
		.shp14 { fill: #ff9d00 } 
	</style>
	<g id="img">
		<path id="Path_1458" class="shp0" d="M212.66 63.92C213.15 64.63 213.56 65.41 213.86 66.22C214.17 67.03 214.37 67.87 214.47 68.73C214.58 69.59 214.57 70.46 214.46 71.32C214.36 72.18 214.14 73.02 213.83 73.83L180.93 159C180.52 160.03 179.95 161 179.25 161.87C178.55 162.74 177.72 163.5 176.8 164.12C175.87 164.75 174.86 165.23 173.79 165.56C172.72 165.88 171.61 166.05 170.49 166.04L75.13 166.04C73.95 166.05 72.77 165.86 71.64 165.5C70.51 165.13 69.45 164.59 68.49 163.89C67.53 163.19 66.69 162.34 66 161.37C65.31 160.41 64.78 159.34 64.42 158.21L42.75 85.88L42.73 85.89L40.69 79.02L38.9 73.05C38.87 72.95 38.86 72.85 38.83 72.75L29.56 41.51L0 41.51L0 29.2L31.47 29.2C32.56 29.22 33.63 29.42 34.65 29.79C35.67 30.16 36.63 30.69 37.48 31.37C38.33 32.04 39.07 32.85 39.66 33.76C40.26 34.66 40.7 35.66 40.98 36.71L47.67 59.27C47.83 59.24 47.99 59.22 48.15 59.2C48.31 59.17 48.47 59.15 48.64 59.14C48.8 59.12 48.96 59.11 49.12 59.1C49.28 59.09 49.45 59.09 49.61 59.09L203.39 59.09C204.3 59.08 205.21 59.19 206.09 59.4C206.97 59.62 207.82 59.94 208.63 60.36C209.43 60.78 210.18 61.29 210.86 61.89C211.54 62.49 212.15 63.17 212.66 63.92L212.66 63.92Z" />
		<g id="Group_816">
			<path id="Path_1459" class="shp1" d="M162.58 32.89C158.51 32.83 146.45 32.43 146.45 32.43C143.08 32.89 140.49 32.35 140.58 32.01C140.66 31.67 141.69 31.9 143.35 31.73C141.7 31.49 139.07 30.66 139.39 30.38C139.7 30.09 142.29 31 143.32 30.85C141.35 30.3 138.63 29.36 138.86 28.86C139.04 28.47 142.2 29.78 143.47 29.94C139.81 28.3 140.08 27.91 140.38 27.85C140.64 27.93 140.91 28.02 141.18 28.11C141.44 28.21 141.71 28.31 141.97 28.41C142.23 28.51 142.49 28.62 142.75 28.73C143.01 28.85 143.26 28.97 143.51 29.09C144.85 29.61 145.8 29.43 144.47 28.57C143.15 27.71 143.65 27.08 143.97 27.43C149.27 30.54 163.94 29 166.27 28.69C166.51 28.63 166.76 28.56 167 28.48C167.24 28.39 167.48 28.3 167.71 28.19C167.94 28.09 168.16 27.97 168.38 27.84C168.6 27.71 168.82 27.57 169.02 27.42C169.02 27.42 172.77 27.27 171.72 30.64C165.68 34.39 166.64 32.95 162.58 32.89Z" />
			<g id="Group_814">
				<path id="Path_1460" class="shp2" d="M186.74 105.22L187.11 108.37L180.32 113.11C179.3 111.29 183.19 107.88 184.2 107.7C184.18 107.45 184.16 107.2 184.15 106.95C184.13 106.7 184.12 106.45 184.12 106.2C184.11 105.95 184.11 105.71 184.11 105.46C184.11 105.21 184.11 104.96 184.12 104.71L186.74 105.22Z" />
				<g id="Group_813">
					<path id="Path_1461" class="shp3" d="M183.19 46.7L179.33 59.93L168.13 60.18L175.59 69.06L175.63 76.31C175.63 76.31 153.25 61.96 155.98 55.97C158.72 49.98 174.48 46.55 174.48 46.55L183.19 46.7Z" />
					<path id="Path_1462" class="shp4" d="M194.39 48.44C194.39 48.44 197.79 55.65 184.09 73.8C184.99 82.64 186.68 104.82 186.8 105.64C186.58 105.67 186.36 105.7 186.13 105.72C185.91 105.73 185.68 105.75 185.46 105.75C185.23 105.76 185.01 105.76 184.78 105.76C184.56 105.75 184.33 105.74 184.1 105.72C183.88 105.71 176.13 81.9 175.35 77.7C174.57 73.49 173.78 71.51 176.29 62.8C178.8 54.08 181.06 46.81 181.06 46.81L194.39 48.44Z" />
					<path id="Path_1463" class="shp1" d="M205.14 40.84C205.52 44.89 206.4 56.92 206.4 56.92C207.21 60.23 206.95 62.85 206.61 62.8C206.26 62.76 206.38 61.71 206.03 60.08C205.97 61.74 205.42 64.44 205.1 64.16C204.79 63.88 205.42 61.2 205.16 60.2C204.82 62.22 204.17 65.02 203.65 64.85C203.24 64.71 204.22 61.43 204.24 60.15C203 63.96 202.58 63.73 202.49 63.45C202.54 63.17 202.6 62.9 202.67 62.62C202.73 62.35 202.8 62.08 202.88 61.8C202.95 61.53 203.03 61.26 203.12 60.99C203.2 60.73 203.29 60.46 203.39 60.19C203.77 58.81 203.48 57.88 202.77 59.29C202.06 60.71 201.37 60.27 201.7 59.92C204.22 54.32 201.13 39.89 200.57 37.61C200.49 37.37 200.39 37.13 200.29 36.9C200.18 36.67 200.06 36.45 199.93 36.23C199.8 36.01 199.66 35.8 199.51 35.59C199.36 35.39 199.2 35.19 199.03 35C199.03 35 198.48 31.3 201.93 31.98C206.3 37.59 204.77 36.79 205.14 40.84Z" />
					<path id="Path_1464" class="shp5" d="M179.6 20.56C180.19 20.08 180.85 19.69 181.55 19.4C182.25 19.11 182.99 18.93 183.75 18.85C184.5 18.78 185.27 18.81 186.01 18.96C186.76 19.1 187.48 19.36 188.15 19.71C193.04 22.16 200.21 28.34 202.97 33.34L200.06 36.36L193.03 32.37L194.83 48.47C194.83 48.47 181.37 50.87 174.14 46.52C173.88 44.16 175.87 31.36 175.87 31.36C175.87 31.36 170.14 33 168.7 32.74C168.06 29.21 167.9 27.39 167.9 27.39C168.99 27.04 170.05 26.63 171.09 26.17C172.13 25.7 173.14 25.18 174.12 24.61C175.1 24.04 176.06 23.41 176.97 22.73C177.89 22.06 178.77 21.33 179.6 20.56L179.6 20.56Z" />
					<path id="Path_1465" class="shp6" d="M180.43 5.13C181.45 6.88 183.76 8.03 184.51 8.41C185.68 12.49 185.26 16.76 180.55 17.78C175.84 18.79 173.92 12.9 173.92 12.9C172.91 9.76 178.33 7.62 180.43 5.13Z" />
				</g>
			</g>
			<g id="Group_815">
				<path id="Rectangle_780" class="shp7" d="M182.45 19.41L174.94 20.21L173.86 10.15L181.37 9.35L182.45 19.41Z" />
				<path id="Rectangle_781" class="shp1" d="M186.09 20.07C186.23 21.3 185.34 22.4 184.11 22.54L184.11 22.54C182.88 22.67 181.78 21.78 181.65 20.55L181.17 16.07C181.04 14.84 181.92 13.74 183.15 13.61L183.15 13.61C184.38 13.48 185.48 14.37 185.61 15.6L186.09 20.07Z" />
				<path id="Ellipse_297" class="shp1" d="M181.94 17.96C178.72 18.3 175.71 14.81 175.21 10.14C174.71 5.48 176.91 1.43 180.13 1.08C183.34 0.74 186.35 4.23 186.85 8.89C187.35 13.56 185.15 17.61 181.94 17.96Z" />
				<path id="Path_1466" class="shp7" d="M173.88 10.28C173.62 7.85 174.33 5.4 175.87 3.49C177.4 1.57 179.63 0.34 182.06 0.06C184.5 -0.22 186.95 0.48 188.87 2C190.8 3.52 192.05 5.74 192.34 8.17L192.34 8.17L192.36 8.3L192.36 8.3L194.11 24.66L186.61 25.46L184.86 9.11L173.88 10.28Z" />
			</g>
		</g>
		<g id="Group_824">
			<g id="Group_817">
				<path id="Path_1467" class="shp1" d="M74.16 113.91L81.9 124.82C81.9 124.82 90.34 121.21 94.81 119.64C99.28 118.07 101.03 117.88 102.95 114.53C103.1 114.07 103.83 114.45 102.94 115.8C102.06 117.15 103.02 116.94 104.06 115.89C104.24 115.67 104.43 115.46 104.63 115.24C104.82 115.03 105.02 114.82 105.22 114.62C105.42 114.41 105.63 114.21 105.84 114.01C106.05 113.82 106.26 113.62 106.48 113.44C106.78 113.37 107.2 113.62 104.45 116.67C105.58 116 107.98 113.46 108.31 113.75C108.74 114.12 106.58 116.12 104.97 117.45C105.99 117.17 108.04 115.25 108.45 115.39C108.86 115.52 106.75 117.39 105.3 118.29C106.92 117.77 107.79 117.13 108.01 117.41C108.23 117.69 105.45 118.9 101.21 120.59C95.23 122.97 89.53 125.85 86.13 127C82.73 128.16 81 130.05 78.52 128.36C76.04 126.67 68.87 117.89 68.87 117.89L74.16 113.91Z" />
			</g>
			<g id="Group_821">
				<path id="Path_1468" class="shp1" d="M122.39 185.78L122.39 190.88C122.39 190.88 115.63 188.33 115.96 185.78C118.85 183.89 122.39 185.78 122.39 185.78Z" />
				<path id="Path_1469" class="shp8" d="M122.39 189.66C122.39 189.66 127.93 196.97 128.22 199.63C128.51 202.29 125.4 201.92 124.08 200.85C120.73 198.14 114.53 191.87 113.42 189.77C112.31 187.66 116.15 186.74 116.15 186.74L122.39 189.66Z" />
				<path id="Path_1470" class="shp8" d="M119.17 153.96C119.17 153.96 127.29 153.96 128.22 156.07C128.38 157.29 116.85 158.29 114.97 156.62L114.19 153.96L119.17 153.96Z" />
				<path id="Path_1471" class="shp9" d="M85.59 140.22C85.59 139.82 96.3 123.04 101.09 123.15C105.88 123.26 116.08 146.43 118.41 153.96L114.2 153.96C114.2 153.96 102 139.44 102 137C101.56 138.2 101.09 139.38 100.59 140.56C100.1 141.73 99.59 142.9 99.05 144.05C98.52 145.21 97.96 146.36 97.38 147.49C96.8 148.62 96.2 149.75 95.57 150.86C94.95 151.97 85.7 145.87 85.59 140.22Z" />
				<path id="Path_1472" class="shp9" d="M91.25 143.88C91.25 143.88 115.75 146.98 119.4 147.98C123.06 148.98 124.28 151.52 124.06 156.73C123.83 161.94 122.39 185.77 122.39 185.77L115.97 185.77C115.97 185.77 112.19 162.61 113.53 157.95C110.09 158.62 75.99 159.4 76.71 153.13C80.53 149.42 91.25 143.88 91.25 143.88Z" />
				<path id="Rectangle_782" class="shp1" d="M70.33 106.03C70.33 104.95 71.21 104.06 72.3 104.06L72.58 104.06C73.67 104.06 74.55 104.95 74.55 106.03L74.55 110.49C74.55 111.58 73.67 112.46 72.58 112.46L72.3 112.46C71.21 112.46 70.33 111.58 70.33 110.49L70.33 106.03Z" />
				<path id="Path_1473" class="shp10" d="M63.44 117.88C63.12 109.13 68.9 109.44 68.9 109.44C76.87 108.76 77.62 114.71 81.3 124.34C83.05 128.92 90.48 141.44 92.8 143.77C91.58 144.88 90.3 145.93 88.98 146.92C87.66 147.9 86.29 148.83 84.88 149.68C83.46 150.54 82.01 151.32 80.53 152.04C79.04 152.76 77.52 153.4 75.97 153.97C75.95 152.41 64.23 139.77 63.44 117.88Z" />
				<g id="Group_820">
					<path id="Ellipse_298" class="shp1" d="M74.36 107.99C70.6 107.99 67.55 104.94 67.55 101.17C67.55 97.41 70.6 94.36 74.36 94.36C78.13 94.36 81.18 97.41 81.18 101.17C81.18 104.94 78.13 107.99 74.36 107.99Z" />
					<g id="Group_819">
						<path id="Path_1474" class="shp7" d="M70.66 99.7L70.57 106.22C63.51 107.44 63.3 99.6 63.3 99.6L70.66 99.7Z" />
						<g id="Group_818">
							<path id="Path_1475" class="shp5" d="M61.49 99.77C61.56 97.08 62.69 94.51 64.64 92.65C66.59 90.78 69.2 89.77 71.9 89.83C74.6 89.89 77.16 91.02 79.03 92.97C80.89 94.93 81.91 97.54 81.84 100.24" />
							<path id="Path_1476" class="shp5" d="M67.69 99.26C67.64 100.39 55.84 99.91 55.89 98.78C55.94 97.65 58.61 96.85 61.87 96.98C65.13 97.11 67.74 98.13 67.69 99.26Z" />
						</g>
					</g>
				</g>
				<path id="Path_1477" class="shp11" d="M73.38 124.85L70.08 119.18C68.2 116.41 68.55 112.89 70.87 111.31L70.87 111.31C73.19 109.73 76.5 110.75 78.39 113.51L82.47 118.65" />
			</g>
			<g id="Group_823">
				<g id="Group_822">
					<path id="Path_1478" class="shp12" d="M106.97 120.6L102.27 119.66C101.7 119.55 101.47 118.59 101.79 117.72L106.53 104.91C106.75 104.3 107.18 103.93 107.58 104.01L112.28 104.95C112.84 105.06 113.08 106.02 112.76 106.89L108.02 119.71C107.79 120.31 107.36 120.68 106.97 120.6Z" />
					<path id="Path_1479" fill-rule="evenodd" class="shp13" d="M106.91 120.9L102.21 119.97C102.14 119.95 102.07 119.93 102.01 119.9C101.94 119.87 101.88 119.83 101.82 119.78C101.77 119.74 101.71 119.69 101.67 119.63C101.62 119.58 101.58 119.52 101.55 119.45C101.48 119.31 101.43 119.16 101.4 119.01C101.36 118.85 101.34 118.69 101.33 118.54C101.33 118.38 101.34 118.22 101.37 118.06C101.4 117.91 101.44 117.76 101.5 117.61L106.24 104.8C106.52 104.03 107.08 103.6 107.64 103.71L112.34 104.64C112.41 104.66 112.48 104.68 112.54 104.71C112.61 104.74 112.67 104.78 112.72 104.83C112.78 104.87 112.83 104.92 112.88 104.98C112.92 105.03 112.96 105.1 113 105.16C113.06 105.3 113.12 105.45 113.15 105.61C113.19 105.76 113.21 105.92 113.21 106.08C113.22 106.23 113.21 106.39 113.18 106.55C113.15 106.7 113.11 106.86 113.05 107L108.31 119.81C108.03 120.58 107.46 121.02 106.91 120.9ZM107.52 104.32C107.32 104.28 107 104.53 106.82 105.02L102.08 117.83C102.04 117.93 102.01 118.04 101.99 118.15C101.96 118.26 101.95 118.38 101.96 118.49C101.96 118.6 101.97 118.72 101.99 118.83C102.02 118.94 102.05 119.05 102.1 119.15C102.11 119.18 102.12 119.2 102.14 119.22C102.16 119.24 102.17 119.26 102.19 119.28C102.21 119.3 102.24 119.31 102.26 119.33C102.28 119.34 102.31 119.35 102.33 119.36L107.03 120.3C107.23 120.34 107.55 120.09 107.73 119.6L112.47 106.79C112.51 106.68 112.54 106.57 112.56 106.46C112.59 106.35 112.6 106.24 112.6 106.12C112.6 106.01 112.58 105.9 112.56 105.79C112.54 105.68 112.5 105.57 112.46 105.46C112.44 105.44 112.43 105.42 112.41 105.39C112.4 105.37 112.38 105.35 112.36 105.33C112.34 105.32 112.32 105.3 112.29 105.29C112.27 105.27 112.24 105.26 112.22 105.26L107.52 104.32Z" />
				</g>
				<path id="Path_1480" class="shp13" d="M112.82 106.68L106.35 105.39L106.53 104.91C106.75 104.3 107.18 103.93 107.58 104.01L112.28 104.95C112.8 105.05 113.03 105.87 112.82 106.68Z" />
				<path id="Path_1481" class="shp13" d="M108.46 118.52L108.02 119.7C107.79 120.31 107.36 120.68 106.97 120.6L102.27 119.66C101.71 119.55 101.47 118.59 101.79 117.72L101.97 117.23L108.46 118.52Z" />
				<path id="Ellipse_299" class="shp12" d="M104.54 119.33C104.32 119.33 104.14 119.15 104.14 118.93C104.14 118.71 104.32 118.53 104.54 118.53C104.76 118.53 104.94 118.71 104.94 118.93C104.94 119.15 104.76 119.33 104.54 119.33Z" />
			</g>
			<path id="Path_1482" class="shp1" d="M80.75 119.57L86.04 127.78C86.04 127.78 94.48 124.13 98.94 122.54C103.4 120.96 105.15 120.76 107.06 117.41C107.2 116.94 107.94 117.32 107.06 118.68C106.18 120.03 107.14 119.81 108.17 118.76C108.36 118.54 108.55 118.33 108.74 118.12C108.94 117.9 109.13 117.69 109.33 117.49C109.54 117.28 109.74 117.08 109.95 116.88C110.16 116.69 110.37 116.49 110.59 116.3C110.89 116.24 111.31 116.49 108.57 119.55C109.69 118.87 112.09 116.32 112.42 116.61C112.85 116.98 110.7 118.99 109.09 120.32C110.11 120.04 112.15 118.11 112.56 118.25C112.97 118.38 110.87 120.25 109.43 121.17C111.04 120.63 111.91 119.99 112.13 120.27C112.35 120.54 109.58 121.77 105.34 123.47C99.38 125.87 93.68 128.77 90.29 129.94C86.89 131.11 85.16 133.01 82.68 131.32C80.2 129.64 75.48 123.57 75.48 123.57L80.75 119.57Z" />
		</g>
		<g id="Group_825">
			<path id="Ellipse_300" class="shp0" d="M158.24 200.83C149.45 200.83 142.34 193.73 142.34 184.94C142.34 176.15 149.45 169.04 158.24 169.04C167.03 169.04 174.13 176.15 174.13 184.94C174.13 193.73 167.03 200.83 158.24 200.83Z" />
			<path id="Ellipse_301" class="shp0" d="M87.95 200.83C79.16 200.83 72.05 193.73 72.05 184.94C72.05 176.15 79.16 169.04 87.95 169.04C96.74 169.04 103.84 176.15 103.84 184.94C103.84 193.73 96.74 200.83 87.95 200.83Z" />
		</g>
		<g id="Group_827">
			<path id="Rectangle_783" class="shp14" d="M153.64 97.11L239.71 97.11L239.71 189.2L153.64 189.2L153.64 97.11Z" />
			<path id="Path_1483" class="shp6" d="M230.94 109.17L225.46 101.56L239.71 97.11L239.71 189.21L230.94 201.27L230.94 109.17Z" />
			<path id="Path_1484" class="shp14" d="M166.25 121.58L153.64 121.58L153.64 97.11L166.25 101.36L166.25 121.58Z" />
			<path id="Path_1485" class="shp14" d="M144.87 108.76L166.25 101.29L166.25 144.32L144.87 144.32L144.87 108.76Z" />
			<path id="Rectangle_784" class="shp6" d="M144.87 109.17L230.94 109.17L230.94 201.26L144.87 201.26L144.87 109.17Z" />
			<g id="Group_826">
				<path id="Ellipse_302" class="shp14" d="M168.53 122.22C166.88 122.22 165.54 120.89 165.54 119.24C165.54 117.59 166.88 116.26 168.53 116.26C170.17 116.26 171.51 117.59 171.51 119.24C171.51 120.89 170.17 122.22 168.53 122.22Z" />
				<path id="Ellipse_303" class="shp14" d="M211.05 122.22C209.4 122.22 208.07 120.89 208.07 119.24C208.07 117.59 209.4 116.26 211.05 116.26C212.7 116.26 214.03 117.59 214.03 119.24C214.03 120.89 212.7 122.22 211.05 122.22Z" />
				<path id="Path_1486" class="shp12" d="M197.29 149.25L182.29 149.25C173.79 149.25 166.88 142.09 166.88 133.29L166.88 119.24C166.87 118.8 167.04 118.37 167.35 118.05C167.66 117.73 168.08 117.55 168.53 117.55C168.97 117.55 169.39 117.73 169.7 118.05C170.01 118.37 170.18 118.8 170.17 119.24L170.17 133.29C170.17 140.28 175.61 145.96 182.29 145.96L197.29 145.96C203.97 145.96 209.4 140.28 209.4 133.29L209.4 119.24C209.39 118.79 209.56 118.37 209.87 118.05C210.18 117.73 210.61 117.55 211.05 117.55C211.49 117.55 211.92 117.73 212.23 118.05C212.54 118.37 212.7 118.79 212.69 119.24L212.69 133.29C212.69 142.09 205.78 149.25 197.29 149.25Z" />
			</g>
		</g>
		<g id="Group_828">
			<path id="Rectangle_785" class="shp13" d="M131.77 21.35C131.55 20.46 132.1 19.56 132.99 19.35L140.35 17.54C141.24 17.32 142.13 17.87 142.35 18.76L145.92 33.31C146.14 34.2 145.6 35.1 144.71 35.32L137.35 37.12C136.46 37.34 135.56 36.8 135.34 35.9L131.77 21.35Z" />
			<path id="Rectangle_786" class="shp12" d="M133.42 22.08L141.22 20.16L144.16 32.13L136.36 34.05L133.42 22.08Z" />
			<path id="Ellipse_304" class="shp12" d="M140.64 35.33C140.25 35.33 139.93 35.02 139.93 34.63C139.93 34.24 140.25 33.92 140.64 33.92C141.03 33.92 141.34 34.24 141.34 34.63C141.34 35.02 141.03 35.33 140.64 35.33Z" />
			<path id="Rectangle_787" class="shp12" d="M135.43 20.09L138.53 19.33L138.58 19.56L135.48 20.32L135.43 20.09Z" />
		</g>
	</g>
</svg>