<svg version="1.2" baseProfile="tiny-ps" xmlns="http://www.w3.org/2000/svg" viewBox="0 0 300 201" width="220" height="150">
	<title>Clip-Path</title>
	<defs>
		<clipPath clipPathUnits="userSpaceOnUse" id="cp1">
			<path d="M-53 0L164 0L164 198L-53 198L-53 0Z" />
		</clipPath>
	</defs>
	<style>
		tspan { white-space:pre }
		.shp0 { fill: #ebebea } 
		.shp1 { fill: #d3d3d3 } 
		.shp2 { fill: #ffffff } 
		.shp3 { fill: #0f4ab2 } 
		.shp4 { fill: #f3f4f5 } 
		.shp5 { fill: #ffd200 } 
		.shp6 { fill: #e82d37 } 
	</style>
	<g id="Clip-Path" clip-path="url(#cp1)">
		<g id="Layer">
			<g id="Layer">
				<g id="Layer">
					<path id="Layer" class="shp0" d="M0 12.3C0 5.26 5.71 -0.46 12.76 -0.46L95.7 -0.46C102.74 -0.46 108.46 5.26 108.46 12.3L108.46 185.13C108.46 192.18 102.74 197.89 95.7 197.89L12.76 197.89C5.71 197.89 0 192.18 0 185.13L0 12.3Z" />
					<path id="Layer" class="shp1" d="M100.74 -0.46C101.75 -0.46 102.76 -0.26 103.69 0.13C104.63 0.52 105.48 1.09 106.2 1.8C106.91 2.52 107.48 3.37 107.87 4.31C108.26 5.24 108.46 6.25 108.46 7.26L108.46 16.82L0 16.82L0 7.26C0 6.25 0.2 5.24 0.59 4.31C0.98 3.37 1.54 2.52 2.26 1.8C2.98 1.09 3.83 0.52 4.76 0.13C5.7 -0.26 6.7 -0.46 7.72 -0.46L100.74 -0.46L100.74 -0.46Z" />
					<path id="Layer" class="shp1" d="M108.46 175.11L108.46 190.17C108.46 191.19 108.26 192.19 107.87 193.13C107.48 194.06 106.91 194.91 106.2 195.63C105.48 196.35 104.63 196.92 103.69 197.3C102.76 197.69 101.75 197.89 100.74 197.89L7.72 197.89C6.7 197.89 5.7 197.69 4.76 197.3C3.83 196.92 2.98 196.35 2.26 195.63C1.54 194.91 0.98 194.06 0.59 193.13C0.2 192.19 0 191.19 0 190.17L0 175.11L108.46 175.11Z" />
					<path id="Layer" class="shp2" d="M42.23 7.19L66.22 7.19L66.22 9.18L42.23 9.18L42.23 7.19Z" />
					<path id="Layer" class="shp2" d="M54.23 190.73C51.64 190.73 49.54 188.64 49.54 186.05C49.54 183.46 51.64 181.36 54.23 181.36C56.82 181.36 58.92 183.46 58.92 186.05C58.92 188.64 56.82 190.73 54.23 190.73Z" />
				</g>
				<g id="Layer">
					<path id="Layer" class="shp3" d="M81.09 157.19C46.39 157.19 18.34 129.14 18.34 94.44C18.34 59.74 46.39 31.69 81.09 31.69C115.79 31.69 143.84 59.74 143.84 94.44C143.84 129.14 115.79 157.19 81.09 157.19Z" />
					<path id="Layer" class="shp4" d="M81.09 141.06C55.31 141.06 34.46 120.22 34.46 94.44C34.46 68.65 55.31 47.81 81.09 47.81C106.88 47.81 127.72 68.65 127.72 94.44C127.72 120.22 106.88 141.06 81.09 141.06Z" />
					<path id="Layer" class="shp3" d="M81.09 127.77C62.66 127.77 47.76 112.87 47.76 94.44C47.76 76 62.66 61.1 81.09 61.1C99.53 61.1 114.43 76 114.43 94.44C114.43 112.87 99.53 127.77 81.09 127.77Z" />
					<path id="Layer" class="shp5" d="M81.09 110.13C72.42 110.13 65.4 103.11 65.4 94.44C65.4 85.76 72.42 78.75 81.09 78.75C89.77 78.75 96.78 85.76 96.78 94.44C96.78 103.11 89.77 110.13 81.09 110.13Z" />
				</g>
				<g id="Layer">
					<path id="Layer" class="shp6" d="M160.6 55.22C160.6 55.29 160.59 55.37 160.58 55.45C160.57 55.53 160.56 55.6 160.54 55.68C160.53 55.75 160.5 55.83 160.48 55.9C160.45 55.98 160.42 56.05 160.39 56.12C160.26 56.4 160.06 56.64 159.82 56.83C159.57 57.01 159.29 57.14 158.98 57.19C158.68 57.25 158.37 57.23 158.07 57.14C157.78 57.05 157.51 56.88 157.29 56.67L152.67 52.18L146.67 46.36L127.98 67.26L126.27 69.16L113.45 83.51L111.12 86.11C111.01 86.23 110.89 86.34 110.75 86.44C110.62 86.54 110.48 86.63 110.33 86.71C110.18 86.79 110.03 86.85 109.87 86.9C109.71 86.96 109.55 86.99 109.38 87.02C109.08 87.06 108.78 87.06 108.48 87.01C108.18 86.96 107.89 86.87 107.61 86.74C107.34 86.61 107.09 86.44 106.87 86.23C106.64 86.02 106.45 85.79 106.3 85.52L101.73 77.91L99.59 74.33L84.59 97.66C82.06 100.77 80.26 100.41 79.78 100.18C78.08 99.34 78.43 97.41 78.95 95.55L93.65 53.74C93.86 53.21 94.22 52.76 94.68 52.43C95.14 52.1 95.69 51.9 96.25 51.86C96.82 51.83 97.39 51.95 97.89 52.22C98.39 52.49 98.8 52.89 99.08 53.38L101.03 56.62L106.86 66.32L108.1 63.94L111.89 56.66L113.65 53.27L114.83 51.01L116.64 47.52L127.12 27.37L116.58 17.13C116.3 16.87 116.1 16.52 116 16.15C115.91 15.77 115.92 15.37 116.04 15C116.16 14.63 116.38 14.3 116.68 14.05C116.98 13.8 117.35 13.64 117.73 13.58L159.1 9.79C159.38 9.77 159.66 9.81 159.93 9.91C160.2 10.01 160.44 10.16 160.64 10.36C160.85 10.56 161.01 10.8 161.11 11.06C161.22 11.33 161.27 11.61 161.26 11.89L161.16 18.74L160.6 55.22Z" />
				</g>
			</g>
		</g>
	</g>
</svg>