<svg version="1.2" baseProfile="tiny-ps" xmlns="http://www.w3.org/2000/svg" viewBox="0 0 300 201" width="220" height="150">
	<title>img</title>
	<defs>
		<clipPath clipPathUnits="userSpaceOnUse" id="cp1">
			<path d="M115.14 137.84C77.03 137.84 46.23 107.03 46.23 68.92C46.23 30.81 77.03 0 115.14 0C153.26 0 184.06 30.81 184.06 68.92C184.06 107.03 153.26 137.84 115.14 137.84Z" />
		</clipPath>
	</defs>
	<style>
		tspan { white-space:pre }
		.shp0 { fill: #ebebea } 
		.shp1 { fill: #d3d3d3 } 
		.shp2 { fill: #ffffff } 
		.shp3 { fill: #ff6160 } 
		.shp4 { fill: #ffd200 } 
		.shp5 { fill: #00bfb3 } 
		.shp6 { fill: #b0d0fa } 
		.shp7 { fill: #f2cfa0 } 
		.shp8 { fill: #f7dbb2 } 
		.shp9 { fill: #2f7aff } 
		.shp10 { fill: #0f4ab2 } 
	</style>
	<g id="img">
		<g id="Group_866">
			<path id="Rectangle_812" class="shp0" d="M0 48.29L228.74 48.29L228.74 195.93L0 195.93L0 48.29Z" />
			<path id="Rectangle_813" class="shp1" d="M0 48.29L228.74 48.29L228.74 62.66L0 62.66L0 48.29Z" />
			<path id="Rectangle_814" class="shp2" d="M63.15 53.09L104.64 53.09L104.64 57.86L63.15 57.86L63.15 53.09Z" />
			<path id="Rectangle_815" class="shp2" d="M153.11 55.47C153.11 53.32 154.86 51.58 157.01 51.58L198.97 51.58C201.12 51.58 202.86 53.32 202.86 55.47L202.86 55.47C202.86 57.62 201.12 59.37 198.97 59.37L157.01 59.37C154.86 59.37 153.11 57.62 153.11 55.47L153.11 55.47Z" />
			<path id="Ellipse_337" class="shp3" d="M8.72 57.54C7.49 57.54 6.49 56.54 6.49 55.31C6.49 54.08 7.49 53.09 8.72 53.09C9.95 53.09 10.94 54.08 10.94 55.31C10.94 56.54 9.95 57.54 8.72 57.54Z" />
			<path id="Ellipse_338" class="shp4" d="M17.34 57.54C16.11 57.54 15.11 56.54 15.11 55.31C15.11 54.08 16.11 53.09 17.34 53.09C18.57 53.09 19.56 54.08 19.56 55.31C19.56 56.54 18.57 57.54 17.34 57.54Z" />
			<path id="Ellipse_339" class="shp5" d="M25.96 57.54C24.73 57.54 23.73 56.54 23.73 55.31C23.73 54.08 24.73 53.09 25.96 53.09C27.19 53.09 28.18 54.08 28.18 55.31C28.18 56.54 27.19 57.54 25.96 57.54Z" />
		</g>
		<g id="Group_869">
			<path id="Ellipse_340" class="shp4" d="M115.14 137.84C77.03 137.84 46.23 107.03 46.23 68.92C46.23 30.81 77.03 0 115.14 0C153.26 0 184.06 30.81 184.06 68.92C184.06 107.03 153.26 137.84 115.14 137.84Z" />
			<g id="Clip-Path: Group_868" clip-path="url(#cp1)">
				<g id="Group_868">
					<g id="Group_867">
						<path id="Path_1546" class="shp6" d="M167.69 134.7L152.21 145.76L150.32 205.14L79.45 205.14L77.55 145.76L62.07 134.7C62.07 134.7 74.71 99.32 114.19 99.32C114.43 99.32 114.65 99.34 114.88 99.33C115.11 99.33 115.34 99.32 115.57 99.32C155.05 99.32 167.69 134.7 167.69 134.7Z" />
						<path id="Rectangle_816" class="shp3" d="M80.75 59.69L149.01 59.69L149.01 96.86L80.75 96.86L80.75 59.69Z" />
						<path id="Rectangle_817" class="shp7" d="M106.67 78.37C106.67 74.42 109.87 71.22 113.82 71.22L115.94 71.22C119.89 71.22 123.09 74.42 123.09 78.37L123.09 104.38C123.09 108.33 119.89 111.53 115.94 111.53L113.82 111.53C109.87 111.53 106.67 108.33 106.67 104.38L106.67 78.37Z" />
						<path id="Ellipse_341" class="shp8" d="M114.88 88.03C103 88.03 93.39 77.57 93.39 64.62C93.39 51.68 103 41.22 114.88 41.22C126.77 41.22 136.38 51.68 136.38 64.62C136.38 77.57 126.77 88.03 114.88 88.03Z" />
						<path id="Path_1547" class="shp3" d="M80.75 60.18C80.75 51.13 84.35 42.45 90.75 36.04C97.15 29.64 105.83 26.05 114.88 26.05C123.93 26.05 132.62 29.64 139.02 36.04C145.42 42.45 149.01 51.13 149.01 60.18" />
					</g>
				</g>
			</g>
		</g>
		<g id="Group_871">
			<g id="Group_870">
				<path id="Path_1548" class="shp9" d="M196.72 148.72L185.51 148.72L188.69 137.84L193.53 137.84L196.72 148.72Z" />
				<path id="Path_1549" class="shp9" d="M203.6 156.13L195.67 148.2L205.61 142.76L209.04 146.18L203.6 156.13Z" />
				<path id="Path_1550" class="shp9" d="M203.22 166.23L203.22 155.02L214.1 158.21L214.1 163.05L203.22 166.23Z" />
				<path id="Path_1551" class="shp9" d="M195.81 173.11L203.74 165.18L209.18 175.13L205.75 178.55L195.81 173.11Z" />
				<path id="Path_1552" class="shp9" d="M185.7 172.73L196.92 172.73L193.73 183.62L188.89 183.62L185.7 172.73Z" />
				<path id="Path_1553" class="shp9" d="M178.83 165.33L186.76 173.25L176.81 178.7L173.38 175.27L178.83 165.33Z" />
				<path id="Path_1554" class="shp9" d="M179.2 155.22L179.2 166.43L168.32 163.25L168.32 158.4L179.2 155.22Z" />
				<path id="Path_1555" class="shp9" d="M186.61 148.34L178.68 156.27L173.24 146.32L176.67 142.9L186.61 148.34Z" />
			</g>
			<path id="Path_1556" fill-rule="evenodd" class="shp5" d="M191.11 146.18C193.06 146.18 194.99 146.57 196.79 147.31C198.59 148.06 200.23 149.15 201.61 150.53C202.99 151.91 204.08 153.54 204.83 155.34C205.57 157.15 205.96 159.08 205.95 161.02C205.95 167.03 202.34 172.44 196.79 174.74C191.25 177.03 184.86 175.76 180.62 171.52C176.37 167.28 175.1 160.89 177.4 155.35C179.7 149.8 185.11 146.18 191.11 146.18ZM191.11 169.21C192.19 169.21 193.25 169 194.24 168.59C195.24 168.18 196.14 167.57 196.9 166.81C197.66 166.05 198.26 165.15 198.68 164.16C199.09 163.17 199.3 162.1 199.3 161.03C199.3 157.72 197.3 154.73 194.25 153.46C191.19 152.2 187.67 152.9 185.32 155.24C182.98 157.58 182.28 161.1 183.55 164.16C184.82 167.22 187.8 169.21 191.11 169.21Z" />
		</g>
		<path id="Ellipse_343" class="shp2" d="M173.24 38.97C168.84 38.97 165.27 35.41 165.27 31C165.27 26.59 168.84 23.03 173.24 23.03C177.65 23.03 181.21 26.59 181.21 31C181.21 35.41 177.65 38.97 173.24 38.97Z" />
		<path id="Path_1557" fill-rule="evenodd" class="shp10" d="M188.14 17.11L188.14 27.84C188.23 31.84 186.69 35.72 183.89 38.58C181.09 41.45 177.25 43.06 173.24 43.06C169.23 43.06 165.4 41.45 162.59 38.58C159.79 35.72 158.26 31.84 158.35 27.84L158.35 17.11L163.2 17.11L163.2 13.37C163.2 10.71 164.25 8.16 166.14 6.27C168.02 4.39 170.58 3.33 173.24 3.33C175.91 3.33 178.46 4.39 180.35 6.27C182.23 8.16 183.29 10.71 183.29 13.37L183.29 17.11L188.14 17.11ZM174.12 29.98C175.78 29.54 176.85 27.94 176.63 26.23C176.41 24.53 174.96 23.26 173.24 23.26C171.53 23.26 170.08 24.53 169.86 26.23C169.64 27.94 170.71 29.54 172.37 29.98L172.37 35.64L174.11 35.64L174.11 29.98L174.12 29.98ZM181.21 13.37C181.21 11.26 180.37 9.24 178.88 7.74C177.39 6.25 175.36 5.41 173.25 5.41C171.13 5.41 169.11 6.25 167.61 7.74C166.12 9.24 165.28 11.26 165.28 13.37L165.28 17.11L181.21 17.11L181.21 13.37Z" />
	</g>
</svg>