<svg version="1.2" baseProfile="tiny-ps" xmlns="http://www.w3.org/2000/svg" viewBox="0 0 300 201" width="220" height="150">
	<title>Group_796</title>
	<style>
		tspan { white-space:pre }
		.shp0 { fill: #ebebea } 
		.shp1 { fill: #c1c1c1 } 
		.shp2 { fill: #ffd200 } 
		.shp3 { fill: #ffffff } 
		.shp4 { fill: #0f4ab2 } 
		.shp5 { fill: #4c9aff } 
		.shp6 { fill: #e82d37 } 
		.shp7 { fill: #f9c90d } 
		.shp8 { fill: #f7f114 } 
	</style>
	<g id="Group_796">
		<g id="Group_789">
			<path id="Rectangle_758" class="shp0" d="M31.91 47.67C31.91 42.44 36.16 38.19 41.39 38.19L206.08 38.19C211.32 38.19 215.56 42.44 215.56 47.67L215.56 154.24C215.56 159.47 211.32 163.71 206.08 163.71L41.39 163.71C36.16 163.71 31.91 159.47 31.91 154.24L31.91 47.67Z" />
			<path id="Rectangle_759" class="shp1" d="M45.59 107.51L205.47 107.51L205.47 116.46L45.59 116.46L45.59 107.51Z" />
			<g id="Group_786">
				<path id="Rectangle_760" class="shp1" d="M45.59 127.1L90.56 127.1L90.56 131.77L45.59 131.77L45.59 127.1Z" />
				<path id="Rectangle_761" class="shp1" d="M45.59 135.5L90.56 135.5L90.56 140.17L45.59 140.17L45.59 135.5Z" />
			</g>
			<g id="Group_788">
				<path id="Rectangle_762" class="shp2" d="M46.34 62.48L77.71 62.48L77.71 89.38L46.34 89.38L46.34 62.48Z" />
				<g id="Group_787">
					<path id="Path_1424" class="shp3" d="M77.71 81.87L46.34 81.87C46.14 81.87 45.95 81.8 45.81 81.65C45.67 81.51 45.59 81.32 45.59 81.12C45.59 80.93 45.67 80.74 45.81 80.6C45.95 80.45 46.14 80.38 46.34 80.38L77.71 80.37C77.91 80.38 78.1 80.45 78.24 80.6C78.38 80.74 78.46 80.93 78.46 81.12C78.46 81.32 78.38 81.51 78.24 81.65C78.1 81.8 77.91 81.87 77.71 81.87L77.71 81.87Z" />
					<path id="Path_1425" class="shp3" d="M68.03 72.3L46.34 72.3C46.14 72.3 45.95 72.22 45.81 72.08C45.67 71.94 45.59 71.75 45.59 71.55C45.59 71.35 45.67 71.16 45.81 71.02C45.95 70.88 46.14 70.8 46.34 70.8L67.28 70.8L67.28 62.48C67.29 62.28 67.36 62.09 67.51 61.95C67.65 61.81 67.84 61.73 68.03 61.73C68.23 61.73 68.42 61.81 68.56 61.95C68.71 62.09 68.78 62.28 68.78 62.48L68.78 71.55C68.79 71.65 68.77 71.75 68.73 71.84C68.69 71.93 68.64 72.01 68.57 72.08C68.5 72.15 68.41 72.21 68.32 72.24C68.23 72.28 68.13 72.3 68.03 72.3Z" />
					<path id="Path_1426" class="shp3" d="M57.19 72.3C57.09 72.3 56.99 72.28 56.9 72.24C56.81 72.21 56.73 72.15 56.66 72.08C56.59 72.01 56.53 71.93 56.49 71.84C56.46 71.75 56.44 71.65 56.44 71.55L56.44 62.48C56.44 62.29 56.52 62.1 56.66 61.95C56.8 61.81 56.99 61.73 57.19 61.73C57.38 61.73 57.58 61.81 57.72 61.95C57.86 62.1 57.94 62.29 57.94 62.48L57.94 71.55C57.94 71.65 57.92 71.75 57.88 71.84C57.84 71.93 57.79 72.01 57.72 72.08C57.65 72.15 57.56 72.21 57.47 72.24C57.38 72.28 57.28 72.3 57.19 72.3L57.19 72.3Z" />
					<path id="Path_1427" class="shp3" d="M57.19 90.94C57.09 90.94 56.99 90.92 56.9 90.88C56.81 90.85 56.73 90.79 56.66 90.72C56.59 90.65 56.53 90.57 56.49 90.48C56.46 90.39 56.44 90.29 56.44 90.19L56.44 81.13C56.44 80.93 56.52 80.74 56.66 80.6C56.8 80.46 56.99 80.38 57.19 80.38C57.38 80.38 57.58 80.46 57.72 80.6C57.86 80.74 57.94 80.93 57.94 81.13L57.94 90.19C57.94 90.29 57.92 90.39 57.88 90.48C57.84 90.57 57.79 90.65 57.72 90.72C57.65 90.79 57.56 90.85 57.47 90.88C57.38 90.92 57.28 90.94 57.19 90.94L57.19 90.94Z" />
					<path id="Path_1428" class="shp3" d="M67.42 90.94C67.32 90.94 67.23 90.92 67.14 90.88C67.04 90.85 66.96 90.79 66.89 90.72C66.82 90.65 66.77 90.57 66.73 90.48C66.69 90.39 66.67 90.29 66.67 90.19L66.67 81.13C66.67 80.93 66.75 80.74 66.89 80.6C67.03 80.46 67.22 80.38 67.42 80.38C67.62 80.38 67.81 80.46 67.95 80.6C68.09 80.74 68.17 80.93 68.17 81.13L68.17 90.19C68.17 90.29 68.15 90.39 68.11 90.48C68.08 90.57 68.02 90.65 67.95 90.72C67.88 90.79 67.8 90.85 67.71 90.88C67.62 90.92 67.52 90.94 67.42 90.94L67.42 90.94Z" />
				</g>
			</g>
		</g>
		<g id="Group_791">
			<path id="Rectangle_763" class="shp4" d="M88.43 68.18C88.43 62.94 92.68 58.7 97.91 58.7L262.6 58.7C267.84 58.7 272.08 62.94 272.08 68.18L272.08 174.74C272.08 179.98 267.84 184.22 262.6 184.22L97.91 184.22C92.68 184.22 88.43 179.98 88.43 174.74L88.43 68.18Z" />
			<path id="Rectangle_764" class="shp5" d="M88.43 86.8L272.08 86.8L272.08 100.95L88.43 100.95L88.43 86.8Z" />
			<g id="Group_790">
				<path id="Ellipse_278" class="shp3" d="M118.82 160.86C110.7 160.86 104.13 154.29 104.13 146.16C104.13 138.03 110.7 131.46 118.82 131.46C126.95 131.46 133.52 138.03 133.52 146.16C133.52 154.29 126.95 160.86 118.82 160.86Z" />
				<path id="Ellipse_279" class="shp2" d="M138.44 160.86C130.31 160.86 123.74 154.29 123.74 146.16C123.74 138.03 130.31 131.46 138.44 131.46C146.57 131.46 153.14 138.03 153.14 146.16C153.14 154.29 146.57 160.86 138.44 160.86Z" />
			</g>
			<path id="Rectangle_765" class="shp5" d="M185.48 143.16L255.24 143.16L255.24 153.52L185.48 153.52L185.48 143.16Z" />
		</g>
		<g id="Group_793">
			<path id="Path_1429" fill-rule="evenodd" class="shp6" d="M291.63 34.18L252.54 34.18L252.54 19.55C252.54 14.36 254.6 9.39 258.26 5.73C261.93 2.06 266.9 0 272.08 0C277.27 0 282.24 2.06 285.9 5.73C289.57 9.39 291.63 14.36 291.63 19.55L291.63 34.18ZM256.58 30.14L287.58 30.14L287.58 19.55C287.58 15.44 285.95 11.49 283.04 8.59C280.13 5.68 276.19 4.05 272.08 4.05C267.97 4.05 264.03 5.68 261.12 8.59C258.21 11.49 256.58 15.44 256.58 19.55L256.58 30.14Z" />
			<path id="Path_1430" class="shp6" d="M301.06 26.82L301.06 47.68C301.06 51.49 300.31 55.26 298.86 58.77C297.4 62.29 295.26 65.48 292.57 68.18C289.88 70.87 286.69 73 283.17 74.46C279.66 75.91 275.89 76.66 272.08 76.66L272.08 76.66C268.28 76.66 264.51 75.91 260.99 74.46C257.48 73 254.28 70.87 251.59 68.18C248.9 65.48 246.76 62.29 245.31 58.77C243.85 55.26 243.1 51.49 243.1 47.68L243.1 26.82L301.06 26.82Z" />
			<g id="Group_792">
				<path id="Ellipse_280" class="shp3" d="M277.18 50.32C276.01 53.14 272.79 54.47 269.97 53.31C267.15 52.14 265.82 48.92 266.99 46.1C268.16 43.28 271.38 41.95 274.2 43.11C277.01 44.28 278.35 47.5 277.18 50.32Z" />
				<path id="Path_1431" class="shp3" d="M270.67 53.72L273.49 53.72L273.49 62.67L270.67 62.67L270.67 53.72Z" />
			</g>
		</g>
		<g id="Group_795">
			<path id="Ellipse_281" class="shp7" d="M17.66 179.21C9.98 179.21 3.78 173.01 3.78 165.33C3.78 157.66 9.98 151.45 17.66 151.45C25.33 151.45 31.54 157.66 31.54 165.33C31.54 173.01 25.33 179.21 17.66 179.21Z" />
			<g id="Group_794">
				<path id="Ellipse_282" class="shp8" d="M17.66 176.28C11.6 176.28 6.71 171.39 6.71 165.33C6.71 159.28 11.6 154.39 17.66 154.39C23.71 154.39 28.6 159.28 28.6 165.33C28.6 171.39 23.71 176.28 17.66 176.28Z" />
				<path id="Ellipse_283" class="shp7" d="M17.66 173.07C13.38 173.07 9.92 169.61 9.92 165.33C9.92 161.05 13.38 157.59 17.66 157.59C21.94 157.59 25.4 161.05 25.4 165.33C25.4 169.61 21.94 173.07 17.66 173.07Z" />
			</g>
		</g>
		<path id="Path_1432" class="shp7" d="M7.02 137.31L0 135.5L7.02 133.69L8.83 126.67L10.64 133.69L17.66 135.5L10.64 137.31L8.83 144.33L7.02 137.31Z" />
		<path id="Path_1433" class="shp7" d="M54.62 187.43L47.61 185.61L54.62 183.8L56.44 176.79L58.25 183.8L65.27 185.61L58.25 187.43L56.44 194.44L54.62 187.43Z" />
		<path id="Path_1434" class="shp7" d="M218.55 28.63L211.53 26.82L218.55 25.01L220.36 17.99L222.18 25.01L229.19 26.82L222.18 28.63L220.36 35.65L218.55 28.63Z" />
	</g>
</svg>