<svg version="1.2" baseProfile="tiny-ps" xmlns="http://www.w3.org/2000/svg" viewBox="0 0 300 201" width="220" height="150">
	<title>img</title>
	<defs>
		<clipPath clipPathUnits="userSpaceOnUse" id="cp1">
			<path d="M35.36 138.35C22.62 138.35 12.32 128.06 12.32 115.32C12.32 102.58 22.62 92.28 35.36 92.28C48.1 92.28 58.4 102.58 58.4 115.32C58.4 128.06 48.1 138.35 35.36 138.35Z" />
		</clipPath>
		<clipPath clipPathUnits="userSpaceOnUse" id="cp2">
			<path d="M92.22 141.36C74.22 141.36 59.67 126.81 59.67 108.81C59.67 90.8 74.22 76.25 92.22 76.25C110.23 76.25 124.78 90.8 124.78 108.81C124.78 126.81 110.23 141.36 92.22 141.36Z" />
		</clipPath>
		<clipPath clipPathUnits="userSpaceOnUse" id="cp3">
			<path d="M150.98 155.14C125.36 155.14 104.65 134.43 104.65 108.81C104.65 83.19 125.36 62.48 150.98 62.48C176.6 62.48 197.31 83.19 197.31 108.81C197.31 134.43 176.6 155.14 150.98 155.14Z" />
		</clipPath>
	</defs>
	<style>
		tspan { white-space:pre }
		.shp0 { fill: #4c9aff } 
		.shp1 { fill: #ffffff } 
		.shp2 { fill: #c1d9f4 } 
		.shp3 { fill: #2f7aff } 
		.shp4 { fill: #b0d0fa } 
		.shp5 { fill: #0f4ab2 } 
		.shp6 { fill: #ff6160 } 
		.shp7 { fill: #f2cfa0 } 
		.shp8 { fill: #f7dbb2 } 
		.shp9 { fill: #ffd200 } 
		.shp10 { fill: #ebebea } 
	</style>
	<g id="img">
		<g id="Group_761">
			<g id="Group_757">
				<path id="Rectangle_736" class="shp0" d="M0 88.84C0 83.4 4.41 78.99 9.85 78.99L64.58 78.99C70.02 78.99 74.43 83.4 74.43 88.84L74.43 166.55C74.43 171.99 70.02 176.4 64.58 176.4L9.85 176.4C4.41 176.4 0 171.99 0 166.55L0 88.84Z" />
			</g>
			<g id="Group_760">
				<path id="Ellipse_260" class="shp1" d="M35.36 138.35C22.62 138.35 12.32 128.06 12.32 115.32C12.32 102.58 22.62 92.28 35.36 92.28C48.1 92.28 58.4 102.58 58.4 115.32C58.4 128.06 48.1 138.35 35.36 138.35Z" />
				<g id="Clip-Path: Group_759" clip-path="url(#cp1)">
					<g id="Group_759">
						<g id="Group_758">
							<path id="Path_1406" class="shp2" d="M52.92 137.31L47.75 141.01L47.12 160.86L23.43 160.86L22.8 141.01L17.62 137.31C17.62 137.31 21.84 125.48 35.04 125.48C35.12 125.48 35.19 125.48 35.27 125.48C35.35 125.48 35.43 125.48 35.5 125.48C48.7 125.48 52.92 137.31 52.92 137.31Z" />
							<path id="Rectangle_737" class="shp2" d="M23.86 112.23L46.68 112.23L46.68 124.66L23.86 124.66L23.86 112.23Z" />
							<path id="Rectangle_738" class="shp1" d="M32.53 118.83C32.53 117.32 33.76 116.09 35.27 116.09L35.27 116.09C36.79 116.09 38.02 117.32 38.02 118.83L38.02 126.82C38.02 128.33 36.79 129.56 35.27 129.56L35.27 129.56C33.76 129.56 32.53 128.33 32.53 126.82L32.53 118.83Z" />
							<path id="Ellipse_261" class="shp1" d="M35.27 121.71C31.3 121.71 28.09 118.21 28.09 113.88C28.09 109.56 31.3 106.06 35.27 106.06C39.25 106.06 42.46 109.56 42.46 113.88C42.46 118.21 39.25 121.71 35.27 121.71Z" />
							<path id="Path_1407" class="shp2" d="M23.86 112.4C23.86 109.37 25.07 106.47 27.21 104.33C29.34 102.19 32.25 100.99 35.27 100.99C38.3 100.99 41.2 102.19 43.34 104.33C45.48 106.47 46.68 109.37 46.68 112.4" />
						</g>
					</g>
				</g>
			</g>
		</g>
		<g id="Group_766">
			<g id="Group_762">
				<path id="Rectangle_739" class="shp1" d="M42.82 73.37C42.82 67.93 47.23 63.52 52.67 63.52L131.04 63.52C136.48 63.52 140.89 67.93 140.89 73.37L140.89 182.01C140.89 187.45 136.48 191.86 131.04 191.86L52.67 191.86C47.23 191.86 42.82 187.45 42.82 182.01L42.82 73.37Z" />
				<path id="Rectangle_740" class="shp3" d="M45.63 73.37C45.63 67.93 50.04 63.52 55.48 63.52L133.85 63.52C139.29 63.52 143.7 67.93 143.7 73.37L143.7 182.01C143.7 187.45 139.29 191.86 133.85 191.86L55.48 191.86C50.04 191.86 45.63 187.45 45.63 182.01L45.63 73.37Z" />
			</g>
			<g id="Group_765">
				<path id="Ellipse_263" class="shp1" d="M92.22 141.36C74.22 141.36 59.67 126.81 59.67 108.81C59.67 90.8 74.22 76.25 92.22 76.25C110.23 76.25 124.78 90.8 124.78 108.81C124.78 126.81 110.23 141.36 92.22 141.36Z" />
				<g id="Clip-Path: Group_764" clip-path="url(#cp2)">
					<g id="Group_764">
						<g id="Group_763">
							<path id="Path_1408" class="shp4" d="M117.05 139.88L109.74 145.1L108.84 173.16L75.37 173.16L74.47 145.1L67.16 139.88C67.16 139.88 73.12 123.17 91.78 123.17C91.89 123.17 91.99 123.18 92.1 123.17C92.21 123.17 92.32 123.17 92.43 123.17C111.08 123.17 117.05 139.88 117.05 139.88Z" />
							<path id="Rectangle_741" class="shp4" d="M75.98 104.45L108.22 104.45L108.22 122.01L75.98 122.01L75.98 104.45Z" />
							<path id="Rectangle_742" class="shp1" d="M88.22 113.77C88.22 111.63 89.96 109.89 92.1 109.89L92.1 109.89C94.24 109.89 95.98 111.63 95.98 113.77L95.98 125.06C95.98 127.2 94.24 128.94 92.1 128.94L92.1 128.94C89.96 128.94 88.22 127.2 88.22 125.06L88.22 113.77Z" />
							<path id="Ellipse_264" class="shp1" d="M92.1 117.83C86.49 117.83 81.95 112.89 81.95 106.78C81.95 100.66 86.49 95.72 92.1 95.72C97.72 95.72 102.25 100.66 102.25 106.78C102.25 112.89 97.72 117.83 92.1 117.83Z" />
							<path id="Path_1409" class="shp4" d="M75.98 104.68C75.98 100.4 77.68 96.3 80.7 93.28C83.72 90.26 87.82 88.56 92.1 88.56C96.38 88.56 100.48 90.26 103.5 93.28C106.52 96.3 108.22 100.4 108.22 104.68" />
						</g>
					</g>
				</g>
			</g>
		</g>
		<g id="Group_767">
			<path id="Rectangle_743" class="shp1" d="M92.51 64.88C92.51 59.44 96.92 55.03 102.36 55.03L196.48 55.03C201.92 55.03 206.33 59.44 206.33 64.88L206.33 190.51C206.33 195.95 201.92 200.36 196.48 200.36L102.36 200.36C96.92 200.36 92.51 195.95 92.51 190.51L92.51 64.88Z" />
			<path id="Rectangle_744" class="shp5" d="M95.28 64.88C95.28 59.44 99.69 55.03 105.13 55.03L196.48 55.03C201.92 55.03 206.33 59.44 206.33 64.88L206.33 190.51C206.33 195.95 201.92 200.36 196.48 200.36L105.13 200.36C99.69 200.36 95.28 195.95 95.28 190.51L95.28 64.88Z" />
		</g>
		<g id="Group_770">
			<path id="Ellipse_266" class="shp1" d="M150.98 155.14C125.36 155.14 104.65 134.43 104.65 108.81C104.65 83.19 125.36 62.48 150.98 62.48C176.6 62.48 197.31 83.19 197.31 108.81C197.31 134.43 176.6 155.14 150.98 155.14Z" />
			<g id="Clip-Path: Group_769" clip-path="url(#cp3)">
				<g id="Group_769">
					<g id="Group_768">
						<path id="Path_1410" class="shp4" d="M186.3 153.03L175.89 160.46L174.62 200.38L126.98 200.38L125.7 160.46L115.3 153.03C115.3 153.03 123.8 129.25 150.34 129.25C150.49 129.25 150.65 129.25 150.8 129.25C150.96 129.25 151.11 129.25 151.26 129.25C177.81 129.25 186.3 153.03 186.3 153.03Z" />
						<path id="Rectangle_745" class="shp6" d="M127.86 102.6L173.75 102.6L173.75 127.59L127.86 127.59L127.86 102.6Z" />
						<path id="Rectangle_746" class="shp7" d="M145.28 115.87C145.28 112.82 147.75 110.35 150.8 110.35L150.8 110.35C153.85 110.35 156.32 112.82 156.32 115.87L156.32 131.93C156.32 134.98 153.85 137.45 150.8 137.45L150.8 137.45C147.75 137.45 145.28 134.98 145.28 131.93L145.28 115.87Z" />
						<path id="Ellipse_267" class="shp8" d="M150.8 121.65C142.81 121.65 136.35 114.62 136.35 105.92C136.35 97.22 142.81 90.19 150.8 90.19C158.79 90.19 165.25 97.22 165.25 105.92C165.25 114.62 158.79 121.65 150.8 121.65Z" />
						<path id="Path_1411" class="shp6" d="M127.86 102.93C127.86 96.85 130.28 91.01 134.58 86.71C138.88 82.41 144.72 79.99 150.8 79.99C156.89 79.99 162.72 82.41 167.03 86.71C171.33 91.01 173.75 96.85 173.75 102.93" />
					</g>
				</g>
			</g>
		</g>
		<path id="Path_1412" fill-rule="evenodd" class="shp9" d="M220.88 129.6C224.88 125.61 230.73 124.11 236.15 125.69C241.58 127.27 245.71 131.68 246.93 137.2C248.16 142.71 246.28 148.46 242.04 152.18C237.79 155.91 231.86 157.03 226.54 155.1L226.47 155.18L226.47 155.09L216.65 155.09L216.65 164.55L207.19 164.55L207.19 174.01L197.73 174.01L197.73 183.69L187.21 183.69L187.21 172.54L187.13 172.46L216.55 143.04C216.36 141.84 216.3 140.61 216.39 139.39C216.48 138.17 216.72 136.97 217.09 135.8C217.47 134.64 217.98 133.52 218.62 132.48C219.26 131.44 220.02 130.47 220.88 129.61L220.88 129.6ZM235.11 143.84C235.54 143.4 235.88 142.89 236.12 142.33C236.35 141.77 236.47 141.16 236.47 140.55C236.47 139.94 236.35 139.34 236.12 138.77C235.88 138.21 235.54 137.7 235.11 137.27C233.78 135.94 231.78 135.54 230.05 136.26C228.31 136.98 227.18 138.67 227.18 140.55C227.18 142.43 228.31 144.13 230.05 144.84C231.78 145.56 233.78 145.17 235.11 143.84L235.11 143.84Z" />
		<path id="Path_1413" class="shp10" d="M191.19 66.43C187.54 66.43 184.01 65.12 181.24 62.74C178.47 60.36 176.65 57.06 176.1 53.45C175.56 49.84 176.33 46.15 178.27 43.06C180.21 39.96 183.2 37.67 186.69 36.59C186.68 36.35 186.67 36.1 186.67 35.86C186.67 31.02 188.34 26.32 191.39 22.56C194.44 18.8 198.7 16.21 203.44 15.21C208.18 14.22 213.11 14.89 217.42 17.11C221.72 19.33 225.13 22.96 227.07 27.4C228.66 26.33 230.5 25.71 232.41 25.59C234.31 25.48 236.22 25.88 237.92 26.75C239.62 27.62 241.05 28.93 242.07 30.55C243.09 32.16 243.66 34.02 243.72 35.93C247.71 36.07 251.49 37.77 254.23 40.67C256.98 43.56 258.49 47.42 258.43 51.41C258.36 55.4 256.74 59.21 253.9 62.02C251.06 64.83 247.24 66.41 243.25 66.43L191.19 66.43Z" />
		<path id="Path_1414" class="shp10" d="M73.04 31.69C70.8 31.69 68.63 30.89 66.93 29.43C65.24 27.97 64.12 25.94 63.78 23.73C63.45 21.51 63.92 19.25 65.11 17.35C66.3 15.45 68.14 14.05 70.28 13.38C70.27 13.23 70.27 13.08 70.27 12.93C70.27 9.96 71.29 7.09 73.16 4.78C75.04 2.48 77.65 0.88 80.55 0.28C83.46 -0.33 86.49 0.08 89.13 1.44C91.77 2.8 93.86 5.02 95.05 7.74C96.02 7.09 97.15 6.71 98.32 6.64C99.49 6.57 100.66 6.81 101.7 7.35C102.75 7.88 103.63 8.68 104.25 9.67C104.88 10.67 105.23 11.81 105.27 12.98C107.73 13.05 110.06 14.09 111.76 15.86C113.46 17.64 114.39 20.02 114.35 22.48C114.31 24.94 113.31 27.28 111.55 29.01C109.8 30.73 107.44 31.7 104.98 31.69L73.04 31.69Z" />
	</g>
</svg>